<svg xmlns="http://www.w3.org/2000/svg" xmlns:xlink="http://www.w3.org/1999/xlink" width="1080" zoomAndPan="magnify" viewBox="0 0 810 809.999993" height="1080" preserveAspectRatio="xMidYMid meet" version="1.0"><defs><g/><clipPath id="c4ceca4e5f"><path d="M 45.585938 101 L 753 101 L 753 698.25 L 45.585938 698.25 Z M 45.585938 101 " clip-rule="nonzero"/></clipPath><clipPath id="a4f22f62be"><rect x="0" width="434" y="0" height="124"/></clipPath><clipPath id="3ee432a48d"><path d="M 0.320312 0.238281 L 441.441406 0.238281 L 441.441406 234.480469 L 0.320312 234.480469 Z M 0.320312 0.238281 " clip-rule="nonzero"/></clipPath><clipPath id="d0e8509fdb"><rect x="0" width="442" y="0" height="235"/></clipPath><clipPath id="d145e3a9f7"><rect x="0" width="226" y="0" height="211"/></clipPath><clipPath id="009f18ff14"><rect x="0" width="442" y="0" height="235"/></clipPath><clipPath id="871d9a1786"><path d="M 517.589844 205 L 529 205 L 529 210 L 517.589844 210 Z M 517.589844 205 " clip-rule="nonzero"/></clipPath><clipPath id="083ba19862"><path d="M 574 148.734375 L 579 148.734375 L 579 160 L 574 160 Z M 574 148.734375 " clip-rule="nonzero"/></clipPath><clipPath id="7e0d6877ca"><path d="M 574 255 L 579 255 L 579 267.230469 L 574 267.230469 Z M 574 255 " clip-rule="nonzero"/></clipPath></defs><rect x="-81" width="972" fill="#ffffff" y="-80.999999" height="971.999992" fill-opacity="1"/><rect x="-81" width="972" fill="#d9d9d9" y="-80.999999" height="971.999992" fill-opacity="1"/><g clip-path="url(#c4ceca4e5f)"><path fill="#5170ff" d="M 751.902344 251.480469 C 750.9375 234.742188 757.078125 216.027344 745.957031 201.464844 C 726.480469 196.097656 707.050781 190.667969 687.507812 185.875 C 686.484375 161.667969 688.398438 137.386719 686.621094 113.242188 C 683.804688 96.761719 663.75 102.507812 652.117188 102.382812 C 551.308594 107.425781 458.417969 164.472656 399.128906 244.640625 C 335.367188 157.765625 230.851562 97.902344 121.414062 102.371094 C 119.238281 104.222656 114.832031 107.925781 112.59375 109.777344 C 109.265625 134.886719 112.40625 160.507812 111.054688 185.804688 C 88.898438 194.75 56.132812 193.347656 45.585938 218.90625 C 49.738281 229 50.703125 239.921875 50.253906 250.78125 C 49.289062 378.925781 51.140625 507.019531 49.351562 635.113281 C 47.6875 644.761719 49.476562 661.824219 63.339844 658.820312 C 108.125 642.53125 156.355469 636.652344 203.882812 639.402344 C 268.472656 644.445312 335.554688 659.59375 388.636719 698.304688 C 393.816406 698.304688 404.101562 698.304688 409.207031 698.367188 C 438.59375 675.8125 474.234375 663.550781 509.4375 653.390625 C 584.890625 632.25 666.34375 634.226562 740.507812 659.585938 C 756.347656 656.90625 752.066406 639.53125 752.203125 628.023438 C 751.523438 502.554688 752.101562 377.011719 751.902344 251.480469 Z M 77.210938 624.121094 C 77.597656 491.808594 77.148438 359.4375 77.398438 227.136719 C 88.710938 223.109375 100.082031 219.09375 111.453125 215.128906 C 111.203125 320.792969 111.265625 426.464844 111.390625 532.128906 C 109.925781 551.359375 133.945312 547.96875 146.46875 549.183594 C 221.21875 552.308594 289.25 590.328125 343.558594 639.707031 C 259.726562 605.851562 164.285156 598.183594 77.210938 624.121094 Z M 442.117188 646.488281 C 483.578125 605.917969 531.367188 569.507812 588.164062 553.847656 C 617.425781 543.941406 648.402344 542.988281 678.816406 540.113281 C 688.648438 538.898438 686.609375 526.636719 687.308594 519.730469 C 687.246094 418.660156 687.183594 317.601562 687.246094 216.53125 C 699.445312 220.234375 711.65625 223.9375 723.914062 227.515625 C 725.640625 359.824219 723.976562 492.195312 724.742188 624.496094 C 631.800781 598.761719 530.289062 607.957031 442.117188 646.488281 Z M 442.117188 646.488281 " fill-opacity="1" fill-rule="nonzero"/></g><g transform="matrix(1, 0, 0, 1, 184, 407)"><g clip-path="url(#a4f22f62be)"><g fill="#ffffff" fill-opacity="1"><g transform="translate(1.665737, 83.334059)"><g><path d="M 57.390625 -28 C 58.023438 -26.726562 57.722656 -25.6875 56.484375 -24.875 C 55.242188 -24.070312 53.640625 -23.523438 51.671875 -23.234375 C 51.617188 -22.660156 51.59375 -22.039062 51.59375 -21.375 C 51.59375 -20.707031 51.59375 -20.054688 51.59375 -19.421875 C 51.59375 -18.085938 51.632812 -16.753906 51.71875 -15.421875 C 51.800781 -14.097656 51.898438 -12.769531 52.015625 -11.4375 C 50.628906 -9.25 48.910156 -7.1875 46.859375 -5.25 C 44.804688 -3.3125 42.421875 -1.75 39.703125 -0.5625 C 36.992188 0.625 33.847656 1.21875 30.265625 1.21875 C 22.398438 1.21875 16.253906 -1.222656 11.828125 -6.109375 C 7.410156 -10.992188 5.203125 -18.117188 5.203125 -27.484375 C 5.203125 -37.660156 7.671875 -45.390625 12.609375 -50.671875 C 17.554688 -55.960938 24.421875 -58.609375 33.203125 -58.609375 C 37.253906 -58.609375 40.722656 -58.085938 43.609375 -57.046875 C 46.503906 -56.003906 48.929688 -54.617188 50.890625 -52.890625 C 50.484375 -51.441406 49.90625 -50.097656 49.15625 -48.859375 C 48.40625 -47.617188 47.539062 -46.421875 46.5625 -45.265625 C 44.769531 -48.085938 42.484375 -50.363281 39.703125 -52.09375 C 36.929688 -53.832031 33.46875 -54.703125 29.3125 -54.703125 C 27.6875 -54.703125 26.109375 -54.554688 24.578125 -54.265625 C 23.046875 -53.984375 21.269531 -53.523438 19.25 -52.890625 C 17.632812 -51.097656 16.144531 -48.222656 14.78125 -44.265625 C 13.425781 -40.304688 12.75 -35.753906 12.75 -30.609375 C 12.75 -24.828125 13.628906 -19.925781 15.390625 -15.90625 C 17.148438 -11.894531 19.585938 -8.832031 22.703125 -6.71875 C 25.828125 -4.613281 29.414062 -3.5625 33.46875 -3.5625 C 35.664062 -3.5625 37.6875 -3.863281 39.53125 -4.46875 C 41.382812 -5.070312 43.0625 -5.835938 44.5625 -6.765625 C 44.789062 -8.492188 44.945312 -10.222656 45.03125 -11.953125 C 45.125 -13.691406 45.171875 -15.398438 45.171875 -17.078125 C 45.171875 -19.210938 45.082031 -21.320312 44.90625 -23.40625 L 35.984375 -24.625 C 36.097656 -25.082031 36.3125 -25.671875 36.625 -26.390625 C 36.945312 -27.117188 37.222656 -27.65625 37.453125 -28 Z M 57.390625 -28 "/></g></g></g><g fill="#ffffff" fill-opacity="1"><g transform="translate(61.747097, 83.334059)"><g/></g></g><g fill="#ffffff" fill-opacity="1"><g transform="translate(74.751718, 83.334059)"><g><path d="M 24.1875 -4.078125 C 26.445312 -4.078125 28.328125 -4.421875 29.828125 -5.109375 C 31.328125 -5.804688 32.550781 -6.617188 33.5 -7.546875 C 34.457031 -8.472656 35.171875 -9.253906 35.640625 -9.890625 L 36.84375 -9.1875 C 36.5 -8.4375 35.992188 -7.46875 35.328125 -6.28125 C 34.660156 -5.101562 33.75 -3.945312 32.59375 -2.8125 C 31.4375 -1.6875 29.945312 -0.734375 28.125 0.046875 C 26.3125 0.828125 24.019531 1.21875 21.25 1.21875 C 17.945312 1.21875 15.195312 0.640625 13 -0.515625 C 10.800781 -1.671875 9.050781 -3.21875 7.75 -5.15625 C 6.457031 -7.09375 5.519531 -9.257812 4.9375 -11.65625 C 4.363281 -14.0625 4.078125 -16.476562 4.078125 -18.90625 C 4.078125 -23.351562 4.84375 -27.164062 6.375 -30.34375 C 7.90625 -33.519531 10.039062 -35.960938 12.78125 -37.671875 C 15.53125 -39.378906 18.671875 -40.234375 22.203125 -40.234375 C 26.878906 -40.234375 30.488281 -38.816406 33.03125 -35.984375 C 35.570312 -33.148438 36.84375 -29.507812 36.84375 -25.0625 C 36.84375 -24.476562 36.828125 -23.910156 36.796875 -23.359375 C 36.773438 -22.816406 36.734375 -22.3125 36.671875 -21.84375 C 35.054688 -21.613281 33.234375 -21.441406 31.203125 -21.328125 C 29.179688 -21.210938 26.757812 -21.15625 23.9375 -21.15625 C 22.195312 -21.15625 20.285156 -21.179688 18.203125 -21.234375 C 16.128906 -21.296875 13.816406 -21.382812 11.265625 -21.5 L 11.265625 -21.15625 C 11.328125 -16.59375 11.992188 -13.082031 13.265625 -10.625 C 14.535156 -8.164062 16.140625 -6.457031 18.078125 -5.5 C 20.015625 -4.550781 22.050781 -4.078125 24.1875 -4.078125 Z M 19.765625 -37.28125 C 19.191406 -37.28125 18.328125 -37.175781 17.171875 -36.96875 C 16.015625 -36.769531 14.769531 -36.125 13.4375 -35.03125 C 12.863281 -32.882812 12.398438 -30.914062 12.046875 -29.125 C 11.703125 -27.332031 11.472656 -25.660156 11.359375 -24.109375 C 14.242188 -23.929688 16.929688 -23.84375 19.421875 -23.84375 C 23.523438 -23.84375 26.878906 -24.015625 29.484375 -24.359375 C 29.304688 -28.117188 28.347656 -31.210938 26.609375 -33.640625 C 24.878906 -36.066406 22.597656 -37.28125 19.765625 -37.28125 Z M 19.765625 -37.28125 "/></g></g></g><g fill="#ffffff" fill-opacity="1"><g transform="translate(115.499535, 83.334059)"><g/></g></g><g fill="#ffffff" fill-opacity="1"><g transform="translate(128.504157, 83.334059)"><g><path d="M 2.859375 0 L 2.171875 -1.90625 C 3.441406 -2.195312 4.664062 -2.613281 5.84375 -3.15625 C 7.03125 -3.707031 8.015625 -4.660156 8.796875 -6.015625 C 9.578125 -7.378906 9.96875 -9.421875 9.96875 -12.140625 C 9.96875 -16.410156 9.921875 -20.554688 9.828125 -24.578125 C 9.742188 -28.597656 9.53125 -32.285156 9.1875 -35.640625 L 1.828125 -35.109375 C 1.472656 -35.804688 1.65625 -36.414062 2.375 -36.9375 C 3.101562 -37.457031 4.117188 -37.890625 5.421875 -38.234375 C 6.722656 -38.578125 8.125 -38.863281 9.625 -39.09375 C 11.125 -39.332031 12.507812 -39.507812 13.78125 -39.625 C 15.050781 -39.738281 15.976562 -39.796875 16.5625 -39.796875 C 15.976562 -36.554688 15.6875 -32.019531 15.6875 -26.1875 C 16.269531 -28.664062 17.210938 -30.972656 18.515625 -33.109375 C 19.816406 -35.253906 21.476562 -36.976562 23.5 -38.28125 C 25.519531 -39.582031 27.832031 -40.234375 30.4375 -40.234375 C 32.28125 -40.234375 34.113281 -39.796875 35.9375 -38.921875 C 37.757812 -38.054688 39.289062 -36.554688 40.53125 -34.421875 C 41.769531 -32.285156 42.390625 -29.304688 42.390625 -25.484375 C 42.390625 -20.742188 42.421875 -16.609375 42.484375 -13.078125 C 42.546875 -9.554688 42.660156 -6.46875 42.828125 -3.8125 C 45.023438 -3.289062 46.785156 -2.753906 48.109375 -2.203125 C 49.441406 -1.660156 49.789062 -0.925781 49.15625 0 L 30.4375 0 L 29.734375 -1.90625 C 31.816406 -2.363281 33.304688 -3.226562 34.203125 -4.5 C 35.097656 -5.78125 35.644531 -7.820312 35.84375 -10.625 C 36.050781 -13.425781 36.15625 -17.367188 36.15625 -22.453125 C 36.15625 -31.128906 33.378906 -35.46875 27.828125 -35.46875 C 24.078125 -35.46875 21.144531 -33.6875 19.03125 -30.125 C 16.914062 -26.570312 15.859375 -21.382812 15.859375 -14.5625 C 15.859375 -13.582031 15.890625 -12.398438 15.953125 -11.015625 C 16.015625 -9.628906 16.070312 -8.285156 16.125 -6.984375 C 16.1875 -5.679688 16.242188 -4.65625 16.296875 -3.90625 C 18.492188 -3.320312 20.300781 -2.726562 21.71875 -2.125 C 23.132812 -1.519531 23.4375 -0.8125 22.625 0 Z M 2.859375 0 "/></g></g></g><g fill="#ffffff" fill-opacity="1"><g transform="translate(179.568972, 83.334059)"><g/></g></g><g fill="#ffffff" fill-opacity="1"><g transform="translate(192.573594, 83.334059)"><g><path d="M 12.21875 -49.328125 C 8.875 -49.328125 7.203125 -51.003906 7.203125 -54.359375 C 7.203125 -55.859375 7.632812 -57.039062 8.5 -57.90625 C 9.363281 -58.78125 10.601562 -59.21875 12.21875 -59.21875 C 13.726562 -59.21875 14.914062 -58.78125 15.78125 -57.90625 C 16.644531 -57.039062 17.078125 -55.859375 17.078125 -54.359375 C 17.078125 -52.742188 16.644531 -51.5 15.78125 -50.625 C 14.914062 -49.757812 13.726562 -49.328125 12.21875 -49.328125 Z M 3.03125 0 L 2.34375 -1.90625 C 3.957031 -2.25 5.253906 -2.707031 6.234375 -3.28125 C 7.222656 -3.863281 7.976562 -4.773438 8.5 -6.015625 C 9.019531 -7.265625 9.363281 -9 9.53125 -11.21875 C 9.707031 -13.445312 9.796875 -16.382812 9.796875 -20.03125 C 9.796875 -22.800781 9.765625 -25.039062 9.703125 -26.75 C 9.648438 -28.457031 9.578125 -30.003906 9.484375 -31.390625 C 9.398438 -32.773438 9.242188 -34.332031 9.015625 -36.0625 L 1.734375 -35.546875 C 1.390625 -36.242188 1.617188 -36.851562 2.421875 -37.375 C 3.234375 -37.894531 4.363281 -38.328125 5.8125 -38.671875 C 7.257812 -39.015625 8.789062 -39.300781 10.40625 -39.53125 C 12.019531 -39.769531 13.535156 -39.945312 14.953125 -40.0625 C 16.367188 -40.175781 17.394531 -40.234375 18.03125 -40.234375 C 17.394531 -37.972656 16.90625 -35.148438 16.5625 -31.765625 C 16.21875 -28.390625 16.046875 -24.390625 16.046875 -19.765625 C 16.046875 -15.203125 16.21875 -9.914062 16.5625 -3.90625 C 17.882812 -3.613281 19.125 -3.28125 20.28125 -2.90625 C 21.4375 -2.53125 22.289062 -2.109375 22.84375 -1.640625 C 23.394531 -1.179688 23.351562 -0.632812 22.71875 0 Z M 3.03125 0 "/></g></g></g><g fill="#ffffff" fill-opacity="1"><g transform="translate(216.848885, 83.334059)"><g/></g></g><g fill="#ffffff" fill-opacity="1"><g transform="translate(229.853507, 83.334059)"><g><path d="M 19.59375 1.21875 C 15.894531 1.21875 13.078125 -0.0234375 11.140625 -2.515625 C 9.203125 -5.003906 8.234375 -9.050781 8.234375 -14.65625 C 8.234375 -16.5 8.316406 -18.488281 8.484375 -20.625 C 8.660156 -22.769531 8.75 -24.851562 8.75 -26.875 C 8.75 -28.550781 8.734375 -30.171875 8.703125 -31.734375 C 8.679688 -33.296875 8.613281 -34.65625 8.5 -35.8125 L 1.296875 -35.109375 C 0.953125 -35.804688 1.125 -36.414062 1.8125 -36.9375 C 2.507812 -37.457031 3.492188 -37.890625 4.765625 -38.234375 C 6.035156 -38.578125 7.421875 -38.863281 8.921875 -39.09375 C 10.429688 -39.332031 11.863281 -39.507812 13.21875 -39.625 C 14.582031 -39.738281 15.640625 -39.796875 16.390625 -39.796875 C 16.097656 -37.421875 15.835938 -34.742188 15.609375 -31.765625 C 15.378906 -28.796875 15.265625 -24.910156 15.265625 -20.109375 C 15.265625 -14.273438 15.796875 -10.054688 16.859375 -7.453125 C 17.929688 -4.859375 19.941406 -3.5625 22.890625 -3.5625 C 25.835938 -3.5625 28.101562 -4.554688 29.6875 -6.546875 C 31.28125 -8.535156 32.378906 -11.117188 32.984375 -14.296875 C 33.597656 -17.484375 33.90625 -20.867188 33.90625 -24.453125 C 33.90625 -26.296875 33.875 -28.359375 33.8125 -30.640625 C 33.757812 -32.929688 33.671875 -34.65625 33.546875 -35.8125 L 26.4375 -35.109375 C 26.039062 -35.984375 26.390625 -36.722656 27.484375 -37.328125 C 28.578125 -37.929688 30.019531 -38.40625 31.8125 -38.75 C 33.613281 -39.101562 35.394531 -39.363281 37.15625 -39.53125 C 38.914062 -39.707031 40.285156 -39.796875 41.265625 -39.796875 C 41.097656 -38.640625 40.941406 -37.09375 40.796875 -35.15625 C 40.648438 -33.21875 40.519531 -31.179688 40.40625 -29.046875 C 40.289062 -26.910156 40.1875 -24.914062 40.09375 -23.0625 C 40.007812 -21.207031 39.96875 -19.789062 39.96875 -18.8125 C 39.96875 -14.769531 40.210938 -11.617188 40.703125 -9.359375 C 41.191406 -7.109375 41.925781 -5.546875 42.90625 -4.671875 C 43.894531 -3.804688 45.140625 -3.375 46.640625 -3.375 L 47.078125 -2 C 45.804688 -1.363281 44.429688 -0.785156 42.953125 -0.265625 C 41.484375 0.253906 39.941406 0.75 38.328125 1.21875 C 36.703125 0.34375 35.425781 -0.972656 34.5 -2.734375 C 33.582031 -4.492188 33.207031 -7.050781 33.375 -10.40625 C 32.800781 -8.382812 31.9375 -6.488281 30.78125 -4.71875 C 29.625 -2.957031 28.148438 -1.523438 26.359375 -0.421875 C 24.566406 0.671875 22.3125 1.21875 19.59375 1.21875 Z M 19.59375 1.21875 "/></g></g></g><g fill="#ffffff" fill-opacity="1"><g transform="translate(280.051346, 83.334059)"><g/></g></g><g fill="#ffffff" fill-opacity="1"><g transform="translate(293.055968, 83.334059)"><g><path d="M 18.03125 1.125 C 16.238281 1.125 14.210938 0.890625 11.953125 0.421875 C 9.703125 -0.0351562 7.679688 -0.722656 5.890625 -1.640625 C 5.140625 -3.265625 4.675781 -4.882812 4.5 -6.5 C 4.332031 -8.125 4.335938 -9.742188 4.515625 -11.359375 L 5.546875 -11.875 C 8.085938 -8.289062 10.757812 -5.773438 13.5625 -4.328125 C 16.375 -2.890625 19.394531 -2.3125 22.625 -2.59375 C 23.78125 -3.0625 24.734375 -3.710938 25.484375 -4.546875 C 26.242188 -5.390625 26.625 -6.535156 26.625 -7.984375 C 26.625 -10.003906 25.726562 -11.9375 23.9375 -13.78125 C 22.144531 -15.632812 19.425781 -17.222656 15.78125 -18.546875 C 12.539062 -19.765625 9.992188 -21.238281 8.140625 -22.96875 C 6.296875 -24.707031 5.375 -27.050781 5.375 -30 C 5.375 -32.769531 6.082031 -34.890625 7.5 -36.359375 C 8.914062 -37.835938 10.722656 -38.851562 12.921875 -39.40625 C 15.117188 -39.957031 17.316406 -40.234375 19.515625 -40.234375 C 21.941406 -40.234375 24.179688 -39.957031 26.234375 -39.40625 C 28.285156 -38.851562 30.003906 -37.972656 31.390625 -36.765625 C 31.390625 -35.773438 30.96875 -34.585938 30.125 -33.203125 C 29.289062 -31.816406 28.378906 -30.660156 27.390625 -29.734375 C 26.523438 -32.109375 25.195312 -34.070312 23.40625 -35.625 C 21.613281 -37.1875 19.300781 -37.96875 16.46875 -37.96875 C 14.738281 -37.507812 13.5 -36.703125 12.75 -35.546875 C 12 -34.390625 11.625 -33.289062 11.625 -32.25 C 11.625 -28.84375 14.710938 -25.925781 20.890625 -23.5 C 24.191406 -22.226562 26.910156 -20.664062 29.046875 -18.8125 C 31.179688 -16.96875 32.25 -14.425781 32.25 -11.1875 C 32.25 -7.65625 30.929688 -4.71875 28.296875 -2.375 C 25.671875 -0.0390625 22.25 1.125 18.03125 1.125 Z M 18.03125 1.125 "/></g></g></g><g fill="#ffffff" fill-opacity="1"><g transform="translate(329.642317, 83.334059)"><g/></g></g><g fill="#ffffff" fill-opacity="1"><g transform="translate(342.646939, 83.334059)"><g><path d="M 24.1875 -4.078125 C 26.445312 -4.078125 28.328125 -4.421875 29.828125 -5.109375 C 31.328125 -5.804688 32.550781 -6.617188 33.5 -7.546875 C 34.457031 -8.472656 35.171875 -9.253906 35.640625 -9.890625 L 36.84375 -9.1875 C 36.5 -8.4375 35.992188 -7.46875 35.328125 -6.28125 C 34.660156 -5.101562 33.75 -3.945312 32.59375 -2.8125 C 31.4375 -1.6875 29.945312 -0.734375 28.125 0.046875 C 26.3125 0.828125 24.019531 1.21875 21.25 1.21875 C 17.945312 1.21875 15.195312 0.640625 13 -0.515625 C 10.800781 -1.671875 9.050781 -3.21875 7.75 -5.15625 C 6.457031 -7.09375 5.519531 -9.257812 4.9375 -11.65625 C 4.363281 -14.0625 4.078125 -16.476562 4.078125 -18.90625 C 4.078125 -23.351562 4.84375 -27.164062 6.375 -30.34375 C 7.90625 -33.519531 10.039062 -35.960938 12.78125 -37.671875 C 15.53125 -39.378906 18.671875 -40.234375 22.203125 -40.234375 C 26.878906 -40.234375 30.488281 -38.816406 33.03125 -35.984375 C 35.570312 -33.148438 36.84375 -29.507812 36.84375 -25.0625 C 36.84375 -24.476562 36.828125 -23.910156 36.796875 -23.359375 C 36.773438 -22.816406 36.734375 -22.3125 36.671875 -21.84375 C 35.054688 -21.613281 33.234375 -21.441406 31.203125 -21.328125 C 29.179688 -21.210938 26.757812 -21.15625 23.9375 -21.15625 C 22.195312 -21.15625 20.285156 -21.179688 18.203125 -21.234375 C 16.128906 -21.296875 13.816406 -21.382812 11.265625 -21.5 L 11.265625 -21.15625 C 11.328125 -16.59375 11.992188 -13.082031 13.265625 -10.625 C 14.535156 -8.164062 16.140625 -6.457031 18.078125 -5.5 C 20.015625 -4.550781 22.050781 -4.078125 24.1875 -4.078125 Z M 19.765625 -37.28125 C 19.191406 -37.28125 18.328125 -37.175781 17.171875 -36.96875 C 16.015625 -36.769531 14.769531 -36.125 13.4375 -35.03125 C 12.863281 -32.882812 12.398438 -30.914062 12.046875 -29.125 C 11.703125 -27.332031 11.472656 -25.660156 11.359375 -24.109375 C 14.242188 -23.929688 16.929688 -23.84375 19.421875 -23.84375 C 23.523438 -23.84375 26.878906 -24.015625 29.484375 -24.359375 C 29.304688 -28.117188 28.347656 -31.210938 26.609375 -33.640625 C 24.878906 -36.066406 22.597656 -37.28125 19.765625 -37.28125 Z M 19.765625 -37.28125 "/></g></g></g><g fill="#ffffff" fill-opacity="1"><g transform="translate(383.394756, 83.334059)"><g/></g></g><g fill="#ffffff" fill-opacity="1"><g transform="translate(396.399378, 83.334059)"><g><path d="M 18.03125 1.125 C 16.238281 1.125 14.210938 0.890625 11.953125 0.421875 C 9.703125 -0.0351562 7.679688 -0.722656 5.890625 -1.640625 C 5.140625 -3.265625 4.675781 -4.882812 4.5 -6.5 C 4.332031 -8.125 4.335938 -9.742188 4.515625 -11.359375 L 5.546875 -11.875 C 8.085938 -8.289062 10.757812 -5.773438 13.5625 -4.328125 C 16.375 -2.890625 19.394531 -2.3125 22.625 -2.59375 C 23.78125 -3.0625 24.734375 -3.710938 25.484375 -4.546875 C 26.242188 -5.390625 26.625 -6.535156 26.625 -7.984375 C 26.625 -10.003906 25.726562 -11.9375 23.9375 -13.78125 C 22.144531 -15.632812 19.425781 -17.222656 15.78125 -18.546875 C 12.539062 -19.765625 9.992188 -21.238281 8.140625 -22.96875 C 6.296875 -24.707031 5.375 -27.050781 5.375 -30 C 5.375 -32.769531 6.082031 -34.890625 7.5 -36.359375 C 8.914062 -37.835938 10.722656 -38.851562 12.921875 -39.40625 C 15.117188 -39.957031 17.316406 -40.234375 19.515625 -40.234375 C 21.941406 -40.234375 24.179688 -39.957031 26.234375 -39.40625 C 28.285156 -38.851562 30.003906 -37.972656 31.390625 -36.765625 C 31.390625 -35.773438 30.96875 -34.585938 30.125 -33.203125 C 29.289062 -31.816406 28.378906 -30.660156 27.390625 -29.734375 C 26.523438 -32.109375 25.195312 -34.070312 23.40625 -35.625 C 21.613281 -37.1875 19.300781 -37.96875 16.46875 -37.96875 C 14.738281 -37.507812 13.5 -36.703125 12.75 -35.546875 C 12 -34.390625 11.625 -33.289062 11.625 -32.25 C 11.625 -28.84375 14.710938 -25.925781 20.890625 -23.5 C 24.191406 -22.226562 26.910156 -20.664062 29.046875 -18.8125 C 31.179688 -16.96875 32.25 -14.425781 32.25 -11.1875 C 32.25 -7.65625 30.929688 -4.71875 28.296875 -2.375 C 25.671875 -0.0390625 22.25 1.125 18.03125 1.125 Z M 18.03125 1.125 "/></g></g></g></g></g><g transform="matrix(1, 0, 0, 1, 190, 252)"><g clip-path="url(#009f18ff14)"><g clip-path="url(#3ee432a48d)"><g transform="matrix(1, 0, 0, 1, 0, 0.000000000000056843)"><g clip-path="url(#d0e8509fdb)"><g fill="#ffffff" fill-opacity="1"><g transform="translate(1.129055, 156.902972)"><g><path d="M 88.625 -25.65625 L 89.625 0 L 5.828125 0 L 4.5 -3.671875 C 9.601562 -4.222656 13.265625 -6.273438 15.484375 -9.828125 C 17.710938 -13.378906 19.101562 -18.847656 19.65625 -26.234375 C 20.207031 -33.617188 20.484375 -43.304688 20.484375 -55.296875 C 20.484375 -63.410156 20.375 -71.460938 20.15625 -79.453125 C 19.9375 -87.453125 19.601562 -95.445312 19.15625 -103.4375 C 16.15625 -103.882812 13.40625 -104.410156 10.90625 -105.015625 C 8.40625 -105.628906 6.570312 -106.378906 5.40625 -107.265625 C 4.25 -108.160156 4.222656 -109.164062 5.328125 -110.28125 L 84.125 -110.28125 L 82.953125 -84.625 C 81.515625 -83.84375 80.238281 -84.171875 79.125 -85.609375 C 78.007812 -87.054688 77.117188 -89.054688 76.453125 -91.609375 C 75.785156 -94.171875 75.34375 -96.617188 75.125 -98.953125 C 70.789062 -99.722656 66.265625 -100.359375 61.546875 -100.859375 C 56.828125 -101.359375 51.191406 -101.609375 44.640625 -101.609375 L 44.3125 -101.609375 C 43.976562 -97.722656 43.726562 -93.304688 43.5625 -88.359375 C 43.394531 -83.421875 43.253906 -78.425781 43.140625 -73.375 C 43.035156 -68.320312 42.984375 -63.578125 42.984375 -59.140625 L 42.984375 -58.296875 C 48.304688 -58.523438 53.660156 -58.859375 59.046875 -59.296875 C 64.429688 -59.742188 69.679688 -60.523438 74.796875 -61.640625 C 74.796875 -59.859375 74.40625 -57.800781 73.625 -55.46875 C 72.851562 -53.132812 71.6875 -51.191406 70.125 -49.640625 L 43.140625 -49.640625 C 43.253906 -46.191406 43.335938 -42.582031 43.390625 -38.8125 C 43.453125 -35.039062 43.484375 -30.929688 43.484375 -26.484375 C 43.484375 -19.148438 42.984375 -13.375 41.984375 -9.15625 C 54.191406 -9.382812 63.265625 -9.800781 69.203125 -10.40625 C 75.148438 -11.019531 79.234375 -11.550781 81.453125 -12 C 81.453125 -16.4375 82.0625 -20.039062 83.28125 -22.8125 C 84.507812 -25.59375 86.289062 -26.539062 88.625 -25.65625 Z M 88.625 -25.65625 "/></g></g></g><g fill="#ffffff" fill-opacity="1"><g transform="translate(98.268415, 156.902972)"><g/></g></g><g fill="#ffffff" fill-opacity="1"><g transform="translate(123.254947, 156.902972)"><g/></g></g><g fill="#ffffff" fill-opacity="1"><g transform="translate(148.241479, 156.902972)"><g/></g></g><g fill="#ffffff" fill-opacity="1"><g transform="translate(173.228012, 156.902972)"><g/></g></g><g fill="#ffffff" fill-opacity="1"><g transform="translate(198.214544, 156.902972)"><g/></g></g><g fill="#ffffff" fill-opacity="1"><g transform="translate(223.201076, 156.902972)"><g/></g></g><g fill="#ffffff" fill-opacity="1"><g transform="translate(248.187609, 156.902972)"><g/></g></g><g fill="#ffffff" fill-opacity="1"><g transform="translate(273.174141, 156.902972)"><g/></g></g><g fill="#ffffff" fill-opacity="1"><g transform="translate(298.160674, 156.902972)"><g/></g></g><g fill="#ffffff" fill-opacity="1"><g transform="translate(323.173874, 156.902972)"><g><path d="M 104.4375 -102.9375 C 103.113281 -86.84375 102.453125 -70.6875 102.453125 -54.46875 C 102.453125 -44.914062 102.644531 -35.921875 103.03125 -27.484375 C 103.414062 -19.046875 104 -10.382812 104.78125 -1.5 C 100.332031 -0.71875 95.914062 -0.078125 91.53125 0.421875 C 87.144531 0.921875 82.066406 1.28125 76.296875 1.5 C 74.847656 -1.832031 72.847656 -6.273438 70.296875 -11.828125 C 67.742188 -17.378906 64.828125 -23.625 61.546875 -30.5625 C 58.273438 -37.507812 54.804688 -44.757812 51.140625 -52.3125 C 47.472656 -59.863281 43.804688 -67.328125 40.140625 -74.703125 C 36.472656 -82.085938 32.976562 -88.945312 29.65625 -95.28125 C 29.539062 -88.175781 29.453125 -80.984375 29.390625 -73.703125 C 29.335938 -66.429688 29.3125 -59.578125 29.3125 -53.140625 C 29.3125 -45.703125 29.453125 -38.207031 29.734375 -30.65625 C 30.015625 -23.101562 30.429688 -15.550781 30.984375 -8 C 33.753906 -7.550781 36.28125 -6.9375 38.5625 -6.15625 C 40.84375 -5.382812 42.535156 -4.5 43.640625 -3.5 C 44.753906 -2.5 44.8125 -1.332031 43.8125 0 L 5.828125 0 L 4.5 -3.671875 C 7.71875 -4.222656 10.351562 -5.164062 12.40625 -6.5 C 14.457031 -7.832031 16.039062 -9.96875 17.15625 -12.90625 C 18.269531 -15.851562 19.046875 -19.960938 19.484375 -25.234375 C 19.929688 -30.515625 20.15625 -37.316406 20.15625 -45.640625 C 20.15625 -52.078125 20.070312 -58.765625 19.90625 -65.703125 C 19.738281 -72.648438 19.539062 -79.34375 19.3125 -85.78125 C 19.09375 -92.226562 18.875 -97.894531 18.65625 -102.78125 C 14.550781 -103.550781 11 -104.578125 8 -105.859375 C 5 -107.140625 4 -108.554688 5 -110.109375 L 50.46875 -110.109375 C 58.351562 -91.671875 65.847656 -74.625 72.953125 -58.96875 C 80.066406 -43.3125 86.84375 -28.929688 93.28125 -15.828125 L 93.28125 -56.96875 C 93.28125 -64.519531 93.171875 -72.070312 92.953125 -79.625 C 92.734375 -87.175781 92.398438 -94.671875 91.953125 -102.109375 C 89.734375 -102.554688 87.375 -103.164062 84.875 -103.9375 C 82.375 -104.71875 80.398438 -105.632812 78.953125 -106.6875 C 77.515625 -107.75 77.238281 -108.945312 78.125 -110.28125 L 114.4375 -110.28125 L 116.265625 -105.28125 Z M 104.4375 -102.9375 "/></g></g></g></g></g></g><g transform="matrix(1, 0, 0, 1, 99, 4)"><g clip-path="url(#d145e3a9f7)"><g fill="#ffffff" fill-opacity="1"><g transform="translate(1.239096, 157.75838)"><g><path d="M 120.515625 -81.84375 L 94.984375 0 L 80.9375 0 L 61.234375 -64.96875 L 41.515625 0 L 27.484375 0 L 1.796875 -81.84375 L 15.6875 -81.84375 L 34.5 -13.140625 L 54.8125 -81.84375 L 68.703125 -81.84375 L 88.5625 -13 L 107.078125 -81.84375 Z M 120.515625 -81.84375 "/></g></g></g><g fill="#ffffff" fill-opacity="1"><g transform="translate(123.69617, 157.75838)"><g><path d="M 6.421875 -41.21875 C 6.421875 -49.582031 8.113281 -56.925781 11.5 -63.25 C 14.882812 -69.570312 19.535156 -74.472656 25.453125 -77.953125 C 31.378906 -81.441406 37.976562 -83.1875 45.25 -83.1875 C 52.414062 -83.1875 58.632812 -81.640625 63.90625 -78.546875 C 69.1875 -75.460938 73.125 -71.582031 75.71875 -66.90625 L 75.71875 -81.84375 L 89.453125 -81.84375 L 89.453125 0 L 75.71875 0 L 75.71875 -15.234375 C 73.03125 -10.453125 69.019531 -6.492188 63.6875 -3.359375 C 58.363281 -0.222656 52.171875 1.34375 45.109375 1.34375 C 37.835938 1.34375 31.265625 -0.445312 25.390625 -4.03125 C 19.515625 -7.613281 14.882812 -12.640625 11.5 -19.109375 C 8.113281 -25.585938 6.421875 -32.957031 6.421875 -41.21875 Z M 75.71875 -41.0625 C 75.71875 -47.238281 74.472656 -52.613281 71.984375 -57.1875 C 69.492188 -61.769531 66.132812 -65.28125 61.90625 -67.71875 C 57.675781 -70.164062 53.019531 -71.390625 47.9375 -71.390625 C 42.863281 -71.390625 38.234375 -70.191406 34.046875 -67.796875 C 29.867188 -65.410156 26.535156 -61.925781 24.046875 -57.34375 C 21.554688 -52.769531 20.3125 -47.394531 20.3125 -41.21875 C 20.3125 -34.945312 21.554688 -29.492188 24.046875 -24.859375 C 26.535156 -20.234375 29.867188 -16.703125 34.046875 -14.265625 C 38.234375 -11.828125 42.863281 -10.609375 47.9375 -10.609375 C 53.019531 -10.609375 57.675781 -11.828125 61.90625 -14.265625 C 66.132812 -16.703125 69.492188 -20.234375 71.984375 -24.859375 C 74.472656 -29.492188 75.71875 -34.894531 75.71875 -41.0625 Z M 75.71875 -41.0625 "/></g></g></g></g></g></g></g><path fill="#ffffff" d="M 624.601562 207.757812 C 624.601562 208.851562 625.476562 209.753906 626.597656 209.753906 L 633.949219 209.753906 C 635.042969 209.753906 635.945312 208.851562 635.945312 207.757812 C 635.945312 206.667969 635.042969 205.765625 633.949219 205.765625 L 626.597656 205.765625 C 625.476562 205.765625 624.601562 206.667969 624.601562 207.757812 Z M 624.601562 207.757812 " fill-opacity="1" fill-rule="nonzero"/><g clip-path="url(#871d9a1786)"><path fill="#ffffff" d="M 519.285156 209.753906 L 526.640625 209.753906 C 527.730469 209.753906 528.632812 208.851562 528.632812 207.757812 C 528.632812 206.667969 527.730469 205.765625 526.640625 205.765625 L 519.285156 205.765625 C 518.195312 205.765625 517.292969 206.667969 517.292969 207.757812 C 517.292969 208.851562 518.195312 209.753906 519.285156 209.753906 Z M 519.285156 209.753906 " fill-opacity="1" fill-rule="nonzero"/></g><g clip-path="url(#083ba19862)"><path fill="#ffffff" d="M 578.613281 157.78125 L 578.613281 150.425781 C 578.613281 149.335938 577.710938 148.433594 576.617188 148.433594 C 575.527344 148.433594 574.625 149.335938 574.625 150.425781 L 574.625 157.78125 C 574.625 158.871094 575.527344 159.773438 576.617188 159.773438 C 577.710938 159.773438 578.613281 158.871094 578.613281 157.78125 Z M 578.613281 157.78125 " fill-opacity="1" fill-rule="nonzero"/></g><g clip-path="url(#7e0d6877ca)"><path fill="#ffffff" d="M 578.613281 265.089844 L 578.613281 257.738281 C 578.613281 256.648438 577.710938 255.742188 576.617188 255.742188 C 575.527344 255.742188 574.625 256.648438 574.625 257.738281 L 574.625 265.089844 C 574.625 266.183594 575.527344 267.085938 576.617188 267.085938 C 577.710938 267.085938 578.613281 266.183594 578.613281 265.089844 Z M 578.613281 265.089844 " fill-opacity="1" fill-rule="nonzero"/></g><path fill="#ffffff" d="M 617.15625 250.289062 C 617.65625 250.289062 618.183594 250.105469 618.558594 249.699219 C 619.335938 248.921875 619.335938 247.671875 618.558594 246.894531 L 613.355469 241.691406 C 612.574219 240.914062 611.328125 240.914062 610.550781 241.691406 C 609.769531 242.46875 609.769531 243.714844 610.550781 244.496094 L 615.753906 249.699219 C 616.128906 250.105469 616.65625 250.289062 617.15625 250.289062 Z M 617.15625 250.289062 " fill-opacity="1" fill-rule="nonzero"/><path fill="#ffffff" d="M 537.484375 165.820312 C 536.703125 165.039062 535.457031 165.039062 534.679688 165.820312 C 533.898438 166.597656 533.898438 167.84375 534.679688 168.625 L 539.882812 173.828125 C 540.257812 174.234375 540.753906 174.417969 541.285156 174.417969 C 541.785156 174.417969 542.3125 174.234375 542.6875 173.828125 C 543.464844 173.046875 543.464844 171.800781 542.6875 171.023438 Z M 537.484375 165.820312 " fill-opacity="1" fill-rule="nonzero"/><path fill="#ffffff" d="M 618.558594 165.820312 C 617.777344 165.039062 616.53125 165.039062 615.753906 165.820312 L 610.550781 171.023438 C 609.769531 171.800781 609.769531 173.046875 610.550781 173.828125 C 610.925781 174.234375 611.453125 174.417969 611.953125 174.417969 C 612.449219 174.417969 612.980469 174.234375 613.355469 173.828125 L 618.558594 168.625 C 619.335938 167.84375 619.335938 166.597656 618.558594 165.820312 Z M 618.558594 165.820312 " fill-opacity="1" fill-rule="nonzero"/><path fill="#ffffff" d="M 534.679688 249.699219 C 535.054688 250.105469 535.550781 250.289062 536.082031 250.289062 C 536.578125 250.289062 537.109375 250.105469 537.484375 249.699219 L 542.6875 244.496094 C 543.464844 243.714844 543.464844 242.46875 542.6875 241.691406 C 541.90625 240.914062 540.660156 240.914062 539.882812 241.691406 L 534.679688 246.894531 C 533.898438 247.671875 533.898438 248.921875 534.679688 249.699219 Z M 534.679688 249.699219 " fill-opacity="1" fill-rule="nonzero"/><path fill="#ffffff" d="M 541.191406 212.464844 C 541.191406 218.414062 545.398438 223.433594 550.976562 224.648438 C 550.601562 225.738281 550.414062 226.859375 550.414062 228.011719 C 550.414062 233.683594 555.210938 238.324219 560.882812 238.109375 C 561.789062 242.097656 565.371094 245.085938 569.640625 245.085938 C 572.472656 245.085938 574.96875 243.746094 576.617188 241.691406 C 578.269531 243.746094 580.761719 245.085938 583.597656 245.085938 C 587.867188 245.085938 591.449219 242.097656 592.355469 238.109375 C 598.054688 238.355469 602.824219 233.683594 602.824219 228.011719 C 602.824219 226.859375 602.636719 225.738281 602.261719 224.648438 C 607.839844 223.433594 612.046875 218.414062 612.046875 212.464844 C 612.046875 208.789062 610.425781 205.328125 607.683594 202.992188 C 608.929688 201.027344 609.585938 198.753906 609.585938 196.355469 C 609.585938 191.371094 606.5625 186.851562 602.074219 184.890625 C 601.886719 179.683594 597.589844 175.480469 592.324219 175.480469 C 591.386719 175.480469 590.515625 175.605469 589.644531 175.851562 C 588.675781 172.707031 585.75 170.429688 582.289062 170.429688 C 580.046875 170.429688 578.019531 171.429688 576.617188 172.984375 C 575.214844 171.429688 573.191406 170.429688 570.917969 170.429688 C 567.488281 170.429688 564.558594 172.707031 563.59375 175.851562 C 562.722656 175.605469 561.816406 175.480469 560.914062 175.480469 C 555.648438 175.480469 551.347656 179.683594 551.160156 184.890625 C 546.644531 186.851562 543.621094 191.371094 543.621094 196.355469 C 543.621094 198.753906 544.308594 201.027344 545.523438 202.992188 C 542.8125 205.328125 541.191406 208.789062 541.191406 212.464844 Z M 582.289062 174.417969 C 584.347656 174.417969 585.996094 176.070312 585.996094 178.097656 C 585.996094 178.285156 585.964844 178.4375 585.964844 178.625 C 585.871094 179.40625 586.246094 180.152344 586.902344 180.558594 C 587.585938 180.964844 588.429688 180.933594 589.050781 180.496094 C 590.015625 179.808594 591.136719 179.46875 592.324219 179.46875 C 595.5 179.46875 598.085938 182.054688 598.085938 185.261719 C 598.085938 185.480469 598.085938 185.699219 598.054688 185.917969 C 597.804688 186.914062 596.808594 189.8125 592.914062 189.03125 C 591.824219 188.816406 590.796875 189.5 590.578125 190.589844 C 590.359375 191.679688 591.046875 192.710938 592.136719 192.929688 C 592.851562 193.082031 593.539062 193.144531 594.222656 193.144531 C 595.8125 193.144531 597.246094 192.742188 598.492188 191.898438 C 599.800781 191.027344 600.609375 189.90625 601.140625 188.910156 C 603.820312 190.339844 605.597656 193.207031 605.597656 196.355469 C 605.597656 198.535156 604.847656 200.5 603.414062 202.058594 C 603.382812 202.089844 603.351562 202.121094 603.351562 202.152344 C 603.320312 202.183594 603.257812 202.214844 603.226562 202.246094 C 603.132812 202.398438 600.703125 205.703125 595.625 205.359375 C 593.507812 205.234375 591.730469 204.269531 590.328125 202.492188 C 589.644531 201.621094 588.398438 201.496094 587.523438 202.183594 C 586.652344 202.835938 586.496094 204.113281 587.179688 204.957031 C 589.300781 207.632812 592.136719 209.160156 595.375 209.347656 C 595.6875 209.378906 596.03125 209.378906 596.3125 209.378906 C 600.640625 209.378906 603.539062 207.480469 605.097656 206.046875 C 606.9375 207.632812 608.058594 209.972656 608.058594 212.464844 C 608.058594 217.074219 604.382812 220.816406 599.800781 220.941406 C 598.554688 219.972656 595.65625 218.289062 591.046875 218.789062 C 589.953125 218.914062 589.175781 219.878906 589.300781 220.96875 C 589.394531 222.0625 590.390625 222.871094 591.480469 222.746094 C 595.28125 222.339844 597.214844 223.929688 597.558594 224.242188 C 598.367188 225.332031 598.835938 226.640625 598.835938 228.011719 C 598.835938 231.90625 595.15625 235.023438 591.078125 233.933594 C 590.484375 233.746094 589.859375 233.902344 589.363281 234.277344 C 588.863281 234.648438 588.582031 235.242188 588.582031 235.863281 L 588.582031 236.144531 C 588.582031 238.886719 586.339844 241.097656 583.597656 241.097656 C 580.855469 241.097656 578.613281 238.886719 578.613281 236.144531 L 578.613281 178.097656 C 578.613281 176.070312 580.265625 174.417969 582.320312 174.417969 Z M 548.140625 206.046875 C 549.699219 207.480469 552.59375 209.378906 556.925781 209.378906 C 557.207031 209.378906 557.550781 209.378906 557.859375 209.347656 C 561.101562 209.128906 563.9375 207.632812 566.054688 204.957031 C 566.742188 204.113281 566.585938 202.835938 565.714844 202.152344 C 564.839844 201.496094 563.59375 201.621094 562.910156 202.492188 C 561.507812 204.269531 559.730469 205.234375 557.613281 205.359375 C 552.65625 205.703125 550.132812 202.398438 550.007812 202.246094 C 549.976562 202.214844 549.914062 202.183594 549.882812 202.152344 C 549.882812 202.121094 549.851562 202.089844 549.851562 202.058594 C 548.390625 200.5 547.640625 198.535156 547.640625 196.355469 C 547.640625 193.207031 549.417969 190.339844 552.097656 188.878906 C 552.625 189.90625 553.4375 191.027344 554.746094 191.898438 C 555.992188 192.742188 557.425781 193.144531 559.015625 193.144531 C 559.699219 193.144531 560.386719 193.082031 561.101562 192.929688 C 562.191406 192.710938 562.878906 191.679688 562.660156 190.589844 C 562.441406 189.5 561.414062 188.816406 560.324219 189.03125 C 556.429688 189.8125 555.429688 186.914062 555.210938 185.917969 C 555.148438 185.699219 555.148438 185.480469 555.148438 185.261719 C 555.148438 182.054688 557.738281 179.46875 560.914062 179.46875 C 562.097656 179.46875 563.21875 179.808594 564.1875 180.464844 C 564.808594 180.933594 565.652344 180.933594 566.335938 180.527344 C 566.992188 180.121094 567.363281 179.34375 567.269531 178.5625 C 567.269531 178.40625 567.238281 178.285156 567.238281 178.097656 C 567.238281 176.070312 568.890625 174.417969 570.949219 174.417969 C 572.972656 174.417969 574.625 176.070312 574.625 178.097656 L 574.625 236.113281 C 574.625 238.855469 572.382812 241.097656 569.640625 241.097656 C 566.867188 241.097656 564.652344 238.855469 564.652344 236.113281 L 564.652344 235.832031 C 564.652344 235.210938 564.375 234.648438 563.875 234.246094 C 563.53125 233.996094 563.097656 233.839844 562.660156 233.839844 C 562.503906 233.839844 562.316406 233.871094 562.160156 233.902344 C 558.078125 235.023438 554.402344 231.90625 554.402344 227.980469 C 554.402344 226.640625 554.871094 225.332031 555.679688 224.242188 C 556.023438 223.929688 557.921875 222.339844 561.757812 222.746094 C 562.847656 222.871094 563.84375 222.0625 563.96875 220.96875 C 564.0625 219.878906 563.28125 218.882812 562.191406 218.789062 C 557.582031 218.289062 554.683594 219.972656 553.4375 220.941406 C 548.855469 220.785156 545.179688 217.042969 545.179688 212.464844 C 545.179688 209.972656 546.300781 207.632812 548.140625 206.046875 Z M 548.140625 206.046875 " fill-opacity="1" fill-rule="nonzero"/></svg>